HIERARCHY
ROOT joint_Root
{
	OFFSET 0.0 0.0 0.0
	CHANNELS 6 Xposition Yposition Zposition Zrotation Xrotation Yrotation 
	JOINT Hips
	{
		OFFSET -0.726466 93.3139 -2.00062
		CHANNELS 6 Xposition Yposition Zposition Zrotation Xrotation Yrotation 
		JOINT Spine
		{
			OFFSET 15.7357 0.0 0.0
			CHANNELS 6 Xposition Yposition Zposition Zrotation Xrotation Yrotation 
			JOINT Chest
			{
				OFFSET 8.98455 -0.406207 0.0
				CHANNELS 6 Xposition Yposition Zposition Zrotation Xrotation Yrotation 
				JOINT Neck
				{
					OFFSET 16.3773 0.0 0.0
					CHANNELS 6 Xposition Yposition Zposition Zrotation Xrotation Yrotation 
					JOINT Head
					{
						OFFSET 6.45672 0.0 0.0
						CHANNELS 6 Xposition Yposition Zposition Zrotation Xrotation Yrotation 
						End Site
						{
							OFFSET 0.0 0.0 0.0
						}
					}
				}
				JOINT Shoulder_L
				{
					OFFSET 12.9942 -0.242716 4.98039
					CHANNELS 6 Xposition Yposition Zposition Zrotation Xrotation Yrotation 
					JOINT UpperArm_L
					{
						OFFSET 5.34809 0.0 0.0
						CHANNELS 6 Xposition Yposition Zposition Zrotation Xrotation Yrotation 
						JOINT LowerArm_L
						{
							OFFSET 24.3286 1.87007e-05 0.0
							CHANNELS 6 Xposition Yposition Zposition Zrotation Xrotation Yrotation 
							JOINT Hand_L
							{
								OFFSET 22.2916 0.0 0.0
								CHANNELS 6 Xposition Yposition Zposition Zrotation Xrotation Yrotation 
								End Site
								{
									OFFSET 0.0 0.0 0.0
								}
							}
						}
					}
				}
				JOINT Shoulder_R
				{
					OFFSET 12.9945 -0.242716 -4.98039
					CHANNELS 6 Xposition Yposition Zposition Zrotation Xrotation Yrotation 
					JOINT UpperArm_R
					{
						OFFSET -5.34813 0.0 0.0
						CHANNELS 6 Xposition Yposition Zposition Zrotation Xrotation Yrotation 
						JOINT LowerArm_R
						{
							OFFSET -24.3289 0.000322201 0.0
							CHANNELS 6 Xposition Yposition Zposition Zrotation Xrotation Yrotation 
							JOINT Hand_R
							{
								OFFSET -22.2915 -0.000108084 0.0
								CHANNELS 6 Xposition Yposition Zposition Zrotation Xrotation Yrotation 
								End Site
								{
									OFFSET 0.0 0.0 0.0
								}
							}
						}
					}
				}
			}
		}
		JOINT UpperLeg_L
		{
			OFFSET -2.19248 -6.46944 0.0
			CHANNELS 6 Xposition Yposition Zposition Zrotation Xrotation Yrotation 
			JOINT LowerLeg_L
			{
				OFFSET 39.0811 0.0 -1.23785e-05
				CHANNELS 6 Xposition Yposition Zposition Zrotation Xrotation Yrotation 
				JOINT Foot_L
				{
					OFFSET 40.9854 0.0 -1.26872e-05
					CHANNELS 6 Xposition Yposition Zposition Zrotation Xrotation Yrotation 
					JOINT Toes_L
					{
						OFFSET 11.7543 0.0 0.0
						CHANNELS 6 Xposition Yposition Zposition Zrotation Xrotation Yrotation 
						End Site
						{
							OFFSET 0.0 0.0 0.0
						}
					}
				}
			}
		}
		JOINT UpperLeg_R
		{
			OFFSET -2.19251 6.46944 0.0
			CHANNELS 6 Xposition Yposition Zposition Zrotation Xrotation Yrotation 
			JOINT LowerLeg_R
			{
				OFFSET -39.0811 -0.00228153 -0.0401928
				CHANNELS 6 Xposition Yposition Zposition Zrotation Xrotation Yrotation 
				JOINT Foot_R
				{
					OFFSET -40.9854 0.0 0.0
					CHANNELS 6 Xposition Yposition Zposition Zrotation Xrotation Yrotation 
					JOINT Toes_R
					{
						OFFSET -11.7543 0.0 0.0
						CHANNELS 6 Xposition Yposition Zposition Zrotation Xrotation Yrotation 
						End Site
						{
							OFFSET 0.0 0.0 0.0
						}
					}
				}
			}
		}
	}
}
MOTION
Frames:	4
Frame Time:	0.0333333
0.000000 0.000000 0.000000 0.000000 0.000000 -0.000000 -2.380330 91.273900 -520.378000 89.382800 -4.252120 1.462540 15.735700 0.000005 -0.000001 96.088900 82.643300 -95.346500 8.984550 -0.406207 -0.000000 6.856580 1.549600 1.390400 16.377300 -0.000001 -0.000001 2.514430 -1.041670 -0.519713 6.456720 -0.000001 -0.000000 3.571600 -2.262660 -3.060330 12.994200 -0.242716 4.980390 -89.331900 -1.796820 -69.598400 5.348090 -0.000007 -0.000001 -77.285600 34.616400 -3.219710 24.328600 0.000019 0.000005 2.836950 5.288610 -28.260500 22.291600 -0.000001 0.000005 4.286740 5.493830 -6.277750 12.994500 -0.242716 -4.980390 88.494400 4.865790 -72.783600 -5.348130 -0.000001 -0.000004 -67.188800 39.230300 -19.968600 -24.328900 0.000322 -0.000009 2.324410 6.491400 -19.778800 -22.291500 -0.000108 -0.000004 12.740200 5.357740 -1.602730 -2.192480 -6.469440 -0.000000 -173.310000 -5.971890 -21.989600 39.081100 -0.000007 -0.000012 0.070774 -0.036271 62.862000 40.985400 -0.000006 -0.000013 1.754170 -8.419820 -59.687400 11.754300 -0.000000 0.000003 -0.003453 -0.045634 -18.432800 -2.192510 6.469440 -0.000001 179.969000 20.575300 178.409000 -39.081100 -0.002282 -0.040193 0.012806 -0.019384 26.100300 -40.985400 0.000008 0.000006 7.183570 6.037060 -71.919600 -11.754300 -0.000006 -0.000006 -0.009584 -0.100504 -20.667500
0.000000 0.000000 0.000000 0.000000 0.000000 -0.000000 -2.374850 91.463400 -518.611000 89.988700 -6.249940 1.409460 15.735700 0.000005 -0.000001 99.020000 82.603300 -98.543000 8.984550 -0.406207 -0.000000 6.839150 2.307760 0.815135 16.377300 -0.000001 -0.000001 2.302540 -0.593336 -0.336800 6.456720 -0.000001 -0.000000 3.475710 -2.051170 -3.100880 12.994200 -0.242716 4.980390 -89.276600 -1.943370 -69.577300 5.348090 -0.000007 -0.000001 -80.030600 34.087400 -0.162183 24.328600 0.000019 0.000005 2.536820 6.015800 -22.924100 22.291600 -0.000001 0.000005 2.372520 5.458660 -4.936440 12.994500 -0.242716 -4.980390 88.526500 4.956530 -73.420900 -5.348130 -0.000001 -0.000004 -61.821800 42.439900 -28.002100 -24.328900 0.000322 -0.000009 2.398530 4.997950 -25.694700 -22.291500 -0.000108 -0.000004 13.798700 5.399020 -2.908510 -2.192480 -6.469440 -0.000000 -174.179000 -5.631450 -24.411800 39.081100 -0.000007 -0.000012 0.062335 -0.038290 58.436300 40.985400 -0.000006 -0.000013 2.630330 -7.966840 -59.712700 11.754300 -0.000000 0.000003 -0.005824 -0.069238 -19.394500 -2.192510 6.469440 -0.000001 178.525000 20.186800 -179.179000 -39.081100 -0.002282 -0.040193 0.001384 0.004420 23.593700 -40.985400 0.000008 0.000006 6.947120 7.812700 -71.659200 -11.754300 -0.000006 -0.000006 -0.008884 -0.095101 -20.446600
0.000000 0.000000 0.000000 0.000000 0.000000 -0.000000 -2.328560 91.474400 -516.781000 90.522000 -7.140960 1.436110 15.735700 0.000005 -0.000001 100.372000 82.577000 -100.113000 8.984550 -0.406207 -0.000000 6.837030 2.661870 0.357337 16.377300 -0.000001 -0.000001 2.107070 -0.490793 -0.163253 6.456720 -0.000001 -0.000000 3.208600 -1.978730 -2.919160 12.994200 -0.242716 4.980390 -89.220000 -2.115220 -69.751300 5.348090 -0.000007 -0.000001 -81.774000 33.549700 1.766030 24.328600 0.000019 0.000005 3.009230 9.436080 -17.798000 22.291600 -0.000001 0.000005 0.361620 5.411010 -3.283180 12.994500 -0.242716 -4.980390 88.577900 4.933070 -73.897000 -5.348130 -0.000001 -0.000004 -57.117500 42.924600 -35.183000 -24.328900 0.000322 -0.000009 2.425410 4.046310 -30.988800 -22.291500 -0.000108 -0.000004 13.896200 5.413790 -3.391340 -2.192480 -6.469440 -0.000000 -174.712000 -4.415280 -26.294900 39.081100 -0.000007 -0.000012 0.051856 -0.040157 52.243000 40.985400 -0.000006 -0.000013 1.962640 -6.986020 -59.663000 11.754300 -0.000000 0.000003 -0.005607 -0.067231 -19.312700 -2.192510 6.469440 -0.000001 177.224000 19.867000 -176.755000 -39.081100 -0.002282 -0.040193 -0.009300 0.032213 21.392200 -40.985400 0.000008 0.000006 6.619600 8.553390 -71.632300 -11.754300 -0.000006 -0.000006 -0.009033 -0.096263 -20.494100
0.000000 0.000000 0.000000 0.000000 0.000000 -0.000000 -2.213890 91.203000 -514.841000 90.806200 -7.281120 1.219400 15.735700 0.000005 -0.000001 101.450000 82.634600 -101.301000 8.984550 -0.406207 -0.000000 6.674450 2.913650 0.127933 16.377300 -0.000001 -0.000001 1.787430 -0.637924 0.032643 6.456720 -0.000001 -0.000000 2.969320 -2.181280 -2.767230 12.994200 -0.242716 4.980390 -89.135100 -2.378470 -70.009400 5.348090 -0.000007 -0.000001 -82.784700 31.933500 2.727420 24.328600 0.000019 0.000005 3.184370 13.776600 -13.157800 22.291600 -0.000001 0.000005 -0.906202 5.362220 -1.745060 12.994500 -0.242716 -4.980390 88.653300 4.742340 -74.126600 -5.348130 -0.000001 -0.000004 -53.059400 42.235500 -41.370900 -24.328900 0.000322 -0.000009 2.252020 3.178460 -35.369000 -22.291500 -0.000108 -0.000004 14.324300 5.426490 -3.818310 -2.192480 -6.469440 -0.000000 -174.936000 -3.248800 -27.783000 39.081100 -0.000007 -0.000012 0.038656 -0.039270 44.546500 40.985400 -0.000006 -0.000013 1.031140 -5.435230 -59.445800 11.754300 -0.000000 0.000003 -0.005111 -0.062546 -19.121700 -2.192510 6.469440 -0.000001 176.190000 19.969400 -174.888000 -39.081100 -0.002282 -0.040193 -0.020952 0.066224 20.129600 -40.985400 0.000008 0.000006 6.193240 8.956880 -72.074300 -11.754300 -0.000006 -0.000006 -0.008448 -0.091653 -20.305700
